<svg version="1.1" id="Layer_1" xmlns="http://www.w3.org/2000/svg" x="0" y="0" viewBox="0 0 142.3 137.3" xml:space="preserve">
  <style>
    .st1{fill:#fff}
  </style>
  <path d="M0 112.1V25.2c0-1.7.2-3.3.5-4.9.3-1.6.8-3.2 1.4-4.7.6-1.5 1.4-3 2.3-4.4.9-1.4 2-2.6 3.1-3.8 1.2-1.2 2.4-2.2 3.8-3.1 1.4-.9 2.8-1.7 4.4-2.3C17 1.4 18.6.9 20.2.6c1.7-.4 3.3-.6 5-.6h91.9c1.7 0 3.3.2 4.9.5 1.6.3 3.2.8 4.7 1.4 1.5.6 3 1.4 4.4 2.3 1.4.9 2.6 2 3.8 3.1 1.2 1.2 2.2 2.4 3.1 3.8.9 1.4 1.7 2.8 2.3 4.4.6 1.5 1.1 3.1 1.4 4.7.3 1.6.5 3.3.5 4.9V112c0 1.7-.2 3.3-.5 4.9s-.8 3.2-1.4 4.7c-.6 1.5-1.4 3-2.3 4.4-.9 1.4-2 2.6-3.1 3.8-1.2 1.2-2.4 2.2-3.8 3.1-1.4.9-2.8 1.7-4.4 2.3-1.5.6-3.1 1.1-4.7 1.4-1.6.3-3.3.5-4.9.5H25.2c-1.7 0-3.3-.2-4.9-.5-1.6-.3-3.2-.8-4.7-1.4-1.5-.6-3-1.4-4.4-2.3-1.4-.9-2.6-2-3.8-3.1-1.2-1.2-2.2-2.4-3.1-3.8-.9-1.4-1.7-2.8-2.3-4.4-.6-1.5-1.1-3.1-1.4-4.7s-.6-3.2-.6-4.8z" fill="#000b1d"/>
  <path class="st1" d="M50.4 100.7c-3.5 0-6.7-.3-9.5-.9-2.9-.6-5.3-1.4-7.2-2.3-.5-.2-.8-.8-.8-1.6V84.7c0-.3.1-.4.2-.5.2-.1.4-.1.6 0 2.6 1.6 5.4 2.9 8.4 3.7 2.9.8 5.8 1.2 8.7 1.2 3.6 0 6.1-.5 7.7-1.6 1.5-1.1 2.3-2.5 2.3-4.1 0-1.1-.3-2-.8-2.9-.5-.8-1.4-1.7-2.6-2.5-1.3-.8-3-1.7-5.2-2.5l-4.7-2c-3.8-1.6-6.8-3.4-9-5.2-2.2-1.8-3.7-3.8-4.5-6-.8-2.1-1.2-4.4-1.2-6.9 0-3.4.8-6.5 2.5-9.2 1.7-2.8 4.2-4.9 7.5-6.5 3.3-1.6 7.5-2.4 12.4-2.4 3 0 5.8.2 8.4.6 2.6.4 4.7 1 6.3 1.8.4.2.7.7.7 1.2v10.6c0 .1-.1.3-.2.4-.2.2-.4.1-.6 0-1.9-1-4.1-1.8-6.6-2.4-2.5-.6-5.1-.8-7.8-.8-1.8 0-3.4.2-4.6.5-1.3.3-2.3.7-3.1 1.2-.8.5-1.4 1.1-1.7 1.8-.4.7-.6 1.5-.6 2.2 0 1 .3 1.9.8 2.7.6.8 1.5 1.6 2.8 2.4 1.3.8 3.1 1.7 5.5 2.8l3.5 1.3c4.1 1.7 7.4 3.5 9.7 5.4 2.3 1.9 4 4 4.9 6.2.9 2.2 1.4 4.6 1.4 7.2 0 3.7-1 6.9-3 9.7-2 2.8-4.7 4.9-8.2 6.4-3.5 1.4-7.6 2.2-12.4 2.2zM105.7 90.4v7.7c0 .7-.2 1.1-.8 1.2-1.2.4-2.4.7-3.8.9-1.3.3-2.8.4-4.5.4-4.1 0-7.3-1.1-9.6-3.2s-3.5-5.5-3.5-10.2V63.9H78c-.5 0-.8-.3-.8-.8v-9.3c0-.5.3-.8.8-.8h5.5c.1-1.1.1-2.3.2-3.7.1-1.4.2-2.8.4-4.2.2-1.4.3-2.6.4-3.4.1-.2.2-.4.3-.5.1-.2.3-.3.5-.3l11.2-1.4c.2-.1.3-.1.5 0 .1.1.2.2.2.6-.1 1.4-.2 3.4-.3 5.9-.1 2.5-.1 4.9-.2 7.2h8.7c.4 0 .6.3.6.8v9.5c0 .4-.2.6-.5.7h-8.9V84c0 2.1.4 3.7 1.1 4.6.7.9 2.1 1.4 4 1.4h1.6c.5 0 1-.1 1.5-.1.2-.1.4 0 .5 0 .3 0 .4.2.4.5z"/>
</svg>
